<?xml version="1.0" encoding="utf-8"?>
<!-- Generator: Adobe Illustrator 22.0.0, SVG Export Plug-In . SVG Version: 6.00 Build 0)  -->
<svg version="1.1" id="Capa_1" xmlns="http://www.w3.org/2000/svg" xmlns:xlink="http://www.w3.org/1999/xlink" x="0px" y="0px"
	 viewBox="0 0 485.7 485.7" style="enable-background:new 0 0 485.7 485.7;" xml:space="preserve">
<style type="text/css">
	.st0{fill:#333333;}
</style>
<g>
	<g>
		<g>
			<path class="st0" d="M410.4,34.7H334l5.2,23.9c0.6,3,0.6,5.9,0.3,8.9h54.6V453H91.6V67.4h54.6c-0.3-2.9-0.3-5.9,0.3-8.9l5.2-23.8
				H75.2c-9,0-16.3,7.3-16.3,16.4v418.2c0,9,7.3,16.4,16.3,16.4h335.2c9,0,16.4-7.3,16.4-16.4V51.1
				C426.8,42.1,419.5,34.7,410.4,34.7z"/>
			<path class="st0" d="M355.6,152.9H243.9c-9,0-16.4,7.3-16.4,16.3s7.3,16.4,16.4,16.4h111.7c9,0,16.4-7.3,16.4-16.4
				C371.9,160.3,364.6,152.9,355.6,152.9z"/>
			<path class="st0" d="M355.6,253.3H243.9c-9,0-16.4,7.3-16.4,16.4c0,9,7.3,16.4,16.4,16.4h111.7c9,0,16.4-7.3,16.4-16.4
				C371.9,260.6,364.6,253.3,355.6,253.3z"/>
			<path class="st0" d="M119.6,156.8c-6.9,5.8-7.8,16.1-2,23l23.9,28.3c3.1,3.7,7.7,5.8,12.5,5.8c0.4,0,0.8,0,1.2,0
				c5.2-0.4,9.9-3.3,12.7-7.7l42.9-69.5c4.7-7.7,2.4-17.8-5.3-22.5c-7.7-4.8-17.8-2.4-22.5,5.3l-31.1,50.3l-9.3-11
				C136.8,151.8,126.5,151,119.6,156.8z"/>
			<path class="st0" d="M158.7,245.1c-13.6,0-24.5,11-24.5,24.5s11,24.5,24.5,24.5s24.5-11,24.5-24.5S172.3,245.1,158.7,245.1z"/>
			<path class="st0" d="M355.6,351.4H243.9c-9,0-16.4,7.3-16.4,16.4c0,9,7.3,16.3,16.4,16.3h111.7c9,0,16.4-7.3,16.4-16.3
				C371.9,358.7,364.6,351.4,355.6,351.4z"/>
			<path class="st0" d="M158.7,343.2c-13.6,0-24.5,11-24.5,24.5s11,24.5,24.5,24.5s24.5-11,24.5-24.5S172.3,343.2,158.7,343.2z"/>
			<path class="st0" d="M173.5,75.6h138.7c3.4,0,6.6-1.5,8.7-4.2c2.1-2.6,3-6.1,2.2-9.4L311.7,8.9c-1.1-5.2-5.7-8.9-11-8.9H185
				c-5.3,0-9.9,3.7-11,8.9L162.5,62c-0.7,3.3,0.1,6.8,2.2,9.4C166.9,74.1,170.1,75.6,173.5,75.6z"/>
		</g>
	</g>
</g>
</svg>
